<svg width="960" height="640" viewBox="0 0 960 640" fill="none" xmlns="http://www.w3.org/2000/svg">
  <rect width="960" height="640" rx="44" fill="url(#bg)"/>
  <rect x="48" y="48" width="864" height="544" rx="36" fill="#10231C"/>
  <rect x="118" y="118" width="724" height="404" rx="28" fill="#183628" stroke="#7FDC9A" stroke-opacity="0.45" stroke-width="2"/>
  <path d="M564 132C433 141 327 205 266 329C305 442 431 498 526 446C610 399 627 284 564 132Z" fill="#2EA857"/>
  <path d="M314 329C377 275 446 236 541 207M438 441C428 352 459 273 541 207" stroke="#F3FAD9" stroke-width="18" stroke-linecap="round"/>
  <circle cx="554" cy="323" r="138" stroke="#BDE872" stroke-width="6" stroke-dasharray="14 14"/>
  <circle cx="554" cy="323" r="182" stroke="#2EA857" stroke-opacity="0.36" stroke-width="2"/>
  <rect x="130" y="536" width="198" height="22" rx="11" fill="#D7F6DE"/>
  <rect x="352" y="536" width="248" height="22" rx="11" fill="#C5EDBF"/>
  <rect x="624" y="536" width="158" height="22" rx="11" fill="#D7F6DE"/>
  <defs>
    <linearGradient id="bg" x1="72" y1="56" x2="908" y2="584" gradientUnits="userSpaceOnUse">
      <stop stop-color="#EAF6ED"/>
      <stop offset="1" stop-color="#DDF0E2"/>
    </linearGradient>
  </defs>
</svg>
